<mxfile host="Electron" modified="2024-01-08T17:54:18.376Z" agent="Mozilla/5.0 (X11; Linux x86_64) AppleWebKit/537.36 (KHTML, like Gecko) draw.io/22.1.16 Chrome/120.0.6099.109 Electron/28.1.0 Safari/537.36" etag="stlKHMWIfio7rhybzVm6" version="22.1.16" type="device">
  <diagram name="Page-1" id="CIXBORyDWbaOjrX8xBr2">
    <mxGraphModel dx="1364" dy="843" grid="1" gridSize="10" guides="1" tooltips="1" connect="1" arrows="1" fold="1" page="1" pageScale="1" pageWidth="1169" pageHeight="827" background="none" math="0" shadow="0">
      <root>
        <mxCell id="0" />
        <mxCell id="1" parent="0" />
        <mxCell id="R3KGfR47Vl5QDTr6S6DE-4" value="&lt;p style=&quot;margin:0px;margin-top:6px;text-align:center;&quot;&gt;&lt;b&gt;Element &lt;/b&gt;(primary)&lt;/p&gt;&lt;hr&gt;&lt;p style=&quot;margin:0px;margin-left:8px;&quot;&gt;+ &lt;b&gt;&lt;font color=&quot;#cf32cf&quot;&gt;children_up : ptr array &amp;lt;nr El&amp;gt;&lt;/font&gt;&lt;/b&gt;&lt;/p&gt;&lt;p style=&quot;margin:0px;margin-left:8px;&quot;&gt;+ order = 0&lt;/p&gt;&lt;p style=&quot;margin:0px;margin-left:8px;&quot;&gt;+ index = 1&lt;/p&gt;&lt;p style=&quot;margin:0px;margin-left:8px;&quot;&gt;+ other attributes...&lt;br&gt;+&amp;nbsp;&lt;b&gt;&lt;font color=&quot;#cc00cc&quot;&gt;children_down : ptr array &amp;lt;nr El&amp;gt;&lt;/font&gt;&lt;/b&gt;&lt;/p&gt;" style="align=left;overflow=fill;html=1;dropTarget=0;whiteSpace=wrap;" vertex="1" parent="1">
          <mxGeometry x="70" y="450" width="220" height="110" as="geometry" />
        </mxCell>
        <mxCell id="R3KGfR47Vl5QDTr6S6DE-5" value="" style="shape=component;jettyWidth=8;jettyHeight=4;" vertex="1" parent="R3KGfR47Vl5QDTr6S6DE-4">
          <mxGeometry x="1" width="20" height="20" relative="1" as="geometry">
            <mxPoint x="-24" y="4" as="offset" />
          </mxGeometry>
        </mxCell>
        <mxCell id="R3KGfR47Vl5QDTr6S6DE-8" value="&lt;p style=&quot;margin:0px;margin-top:6px;text-align:center;&quot;&gt;&lt;b&gt;Element&lt;/b&gt;&lt;/p&gt;&lt;hr&gt;&lt;p style=&quot;margin:0px;margin-left:8px;&quot;&gt;+ &lt;b&gt;children_up&lt;/b&gt;&lt;/p&gt;&lt;p style=&quot;margin:0px;margin-left:8px;&quot;&gt;+ order = 1&lt;/p&gt;&lt;p style=&quot;margin:0px;margin-left:8px;&quot;&gt;+ index = 1&lt;/p&gt;&lt;p style=&quot;margin:0px;margin-left:8px;&quot;&gt;+ UpBranch&lt;/p&gt;&lt;p style=&quot;margin:0px;margin-left:8px;&quot;&gt;+ other attributes...&lt;br&gt;+&amp;nbsp;&lt;b&gt;children_down&lt;/b&gt;&lt;/p&gt;" style="align=left;overflow=fill;html=1;dropTarget=0;whiteSpace=wrap;" vertex="1" parent="1">
          <mxGeometry x="140" y="259" width="140" height="130" as="geometry" />
        </mxCell>
        <mxCell id="R3KGfR47Vl5QDTr6S6DE-9" value="" style="shape=component;jettyWidth=8;jettyHeight=4;" vertex="1" parent="R3KGfR47Vl5QDTr6S6DE-8">
          <mxGeometry x="1" width="20" height="20" relative="1" as="geometry">
            <mxPoint x="-24" y="4" as="offset" />
          </mxGeometry>
        </mxCell>
        <mxCell id="R3KGfR47Vl5QDTr6S6DE-10" value="&lt;p style=&quot;margin:0px;margin-top:6px;text-align:center;&quot;&gt;&lt;b&gt;Element&lt;/b&gt;&lt;/p&gt;&lt;hr&gt;&lt;p style=&quot;margin:0px;margin-left:8px;&quot;&gt;+ &lt;b&gt;&lt;font color=&quot;#990099&quot;&gt;children_up&lt;/font&gt;&lt;/b&gt;&lt;/p&gt;&lt;p style=&quot;margin:0px;margin-left:8px;&quot;&gt;+ order = 1&lt;/p&gt;&lt;p style=&quot;margin:0px;margin-left:8px;&quot;&gt;+ index = 2&lt;/p&gt;&lt;p style=&quot;margin:0px;margin-left:8px;&quot;&gt;+ UpBranch&lt;/p&gt;&lt;p style=&quot;margin:0px;margin-left:8px;&quot;&gt;+ other attributes...&lt;br&gt;+&amp;nbsp;&lt;b&gt;children_down&lt;/b&gt;&lt;/p&gt;" style="align=left;overflow=fill;html=1;dropTarget=0;whiteSpace=wrap;" vertex="1" parent="1">
          <mxGeometry x="320" y="259" width="140" height="130" as="geometry" />
        </mxCell>
        <mxCell id="R3KGfR47Vl5QDTr6S6DE-11" value="" style="shape=component;jettyWidth=8;jettyHeight=4;" vertex="1" parent="R3KGfR47Vl5QDTr6S6DE-10">
          <mxGeometry x="1" width="20" height="20" relative="1" as="geometry">
            <mxPoint x="-24" y="4" as="offset" />
          </mxGeometry>
        </mxCell>
        <mxCell id="R3KGfR47Vl5QDTr6S6DE-12" value="&lt;p style=&quot;margin:0px;margin-top:6px;text-align:center;&quot;&gt;&lt;b&gt;Element&lt;/b&gt;&lt;/p&gt;&lt;hr&gt;&lt;p style=&quot;margin:0px;margin-left:8px;&quot;&gt;+ &lt;b&gt;children_up&lt;/b&gt;&lt;/p&gt;&lt;p style=&quot;margin:0px;margin-left:8px;&quot;&gt;+ order = 1&lt;/p&gt;&lt;p style=&quot;margin:0px;margin-left:8px;&quot;&gt;+ index = 3&lt;/p&gt;&lt;p style=&quot;margin:0px;margin-left:8px;&quot;&gt;+UpBranch&lt;/p&gt;&lt;p style=&quot;margin:0px;margin-left:8px;&quot;&gt;+ other attributes...&lt;br&gt;+&amp;nbsp;&lt;b&gt;children_down&lt;/b&gt;&lt;/p&gt;" style="align=left;overflow=fill;html=1;dropTarget=0;whiteSpace=wrap;" vertex="1" parent="1">
          <mxGeometry x="500" y="259" width="140" height="130" as="geometry" />
        </mxCell>
        <mxCell id="R3KGfR47Vl5QDTr6S6DE-13" value="" style="shape=component;jettyWidth=8;jettyHeight=4;" vertex="1" parent="R3KGfR47Vl5QDTr6S6DE-12">
          <mxGeometry x="1" width="20" height="20" relative="1" as="geometry">
            <mxPoint x="-24" y="4" as="offset" />
          </mxGeometry>
        </mxCell>
        <mxCell id="R3KGfR47Vl5QDTr6S6DE-14" value="&lt;p style=&quot;margin:0px;margin-top:6px;text-align:center;&quot;&gt;&lt;b&gt;Element&lt;/b&gt;&lt;/p&gt;&lt;hr&gt;&lt;p style=&quot;margin:0px;margin-left:8px;&quot;&gt;+ &lt;b&gt;children_up&lt;/b&gt;&lt;/p&gt;&lt;p style=&quot;margin:0px;margin-left:8px;&quot;&gt;+ order = 1&lt;/p&gt;&lt;p style=&quot;margin:0px;margin-left:8px;&quot;&gt;+ index = 4&lt;/p&gt;&lt;p style=&quot;margin:0px;margin-left:8px;&quot;&gt;+ UpBranch&lt;/p&gt;&lt;p style=&quot;margin:0px;margin-left:8px;&quot;&gt;+ other attributes...&lt;br&gt;+&amp;nbsp;&lt;b&gt;children_down&lt;/b&gt;&lt;/p&gt;" style="align=left;overflow=fill;html=1;dropTarget=0;whiteSpace=wrap;" vertex="1" parent="1">
          <mxGeometry x="680" y="259" width="140" height="130" as="geometry" />
        </mxCell>
        <mxCell id="R3KGfR47Vl5QDTr6S6DE-15" value="" style="shape=component;jettyWidth=8;jettyHeight=4;" vertex="1" parent="R3KGfR47Vl5QDTr6S6DE-14">
          <mxGeometry x="1" width="20" height="20" relative="1" as="geometry">
            <mxPoint x="-24" y="4" as="offset" />
          </mxGeometry>
        </mxCell>
        <mxCell id="R3KGfR47Vl5QDTr6S6DE-18" value="array of Elements (up branch)" style="shape=umlFrame;whiteSpace=wrap;html=1;pointerEvents=0;fillColor=#d80073;strokeColor=#A50040;width=220;height=25;fontColor=#ffffff;" vertex="1" parent="1">
          <mxGeometry x="110" y="214" width="920" height="200" as="geometry" />
        </mxCell>
        <mxCell id="R3KGfR47Vl5QDTr6S6DE-16" value="&lt;p style=&quot;margin:0px;margin-top:6px;text-align:center;&quot;&gt;&lt;b&gt;Element&lt;/b&gt;&lt;/p&gt;&lt;hr&gt;&lt;p style=&quot;margin:0px;margin-left:8px;&quot;&gt;+ &lt;b&gt;children_up&lt;/b&gt;&lt;/p&gt;&lt;p style=&quot;margin:0px;margin-left:8px;&quot;&gt;+ order = 1&lt;/p&gt;&lt;p style=&quot;margin:0px;margin-left:8px;&quot;&gt;+ index = 5&lt;/p&gt;&lt;p style=&quot;margin:0px;margin-left:8px;&quot;&gt;+ UpBranch&lt;/p&gt;&lt;p style=&quot;margin:0px;margin-left:8px;&quot;&gt;+ other attributes...&lt;br&gt;+&amp;nbsp;&lt;b&gt;children_down&lt;/b&gt;&lt;/p&gt;" style="align=left;overflow=fill;html=1;dropTarget=0;whiteSpace=wrap;" vertex="1" parent="1">
          <mxGeometry x="860" y="259" width="140" height="130" as="geometry" />
        </mxCell>
        <mxCell id="R3KGfR47Vl5QDTr6S6DE-17" value="" style="shape=component;jettyWidth=8;jettyHeight=4;" vertex="1" parent="R3KGfR47Vl5QDTr6S6DE-16">
          <mxGeometry x="1" width="20" height="20" relative="1" as="geometry">
            <mxPoint x="-24" y="4" as="offset" />
          </mxGeometry>
        </mxCell>
        <mxCell id="R3KGfR47Vl5QDTr6S6DE-20" style="edgeStyle=orthogonalEdgeStyle;rounded=0;orthogonalLoop=1;jettySize=auto;html=1;exitX=0;exitY=0.373;exitDx=0;exitDy=0;exitPerimeter=0;fillColor=#d80073;strokeColor=#A50040;" edge="1" parent="1" source="R3KGfR47Vl5QDTr6S6DE-4" target="R3KGfR47Vl5QDTr6S6DE-18">
          <mxGeometry relative="1" as="geometry">
            <Array as="points">
              <mxPoint x="50" y="481" />
              <mxPoint x="50" y="434" />
              <mxPoint x="570" y="434" />
            </Array>
          </mxGeometry>
        </mxCell>
        <mxCell id="R3KGfR47Vl5QDTr6S6DE-21" value="&lt;p style=&quot;margin:0px;margin-top:6px;text-align:center;&quot;&gt;&lt;b&gt;Element&lt;/b&gt;&lt;/p&gt;&lt;hr&gt;&lt;p style=&quot;margin:0px;margin-left:8px;&quot;&gt;+ &lt;b&gt;children_up&lt;/b&gt;&lt;/p&gt;&lt;p style=&quot;margin:0px;margin-left:8px;&quot;&gt;+ order = 1&lt;/p&gt;&lt;p style=&quot;margin:0px;margin-left:8px;&quot;&gt;+ index = 1&lt;/p&gt;&lt;p style=&quot;margin:0px;margin-left:8px;&quot;&gt;+ DownBranch&lt;/p&gt;&lt;p style=&quot;margin:0px;margin-left:8px;&quot;&gt;+ other attributes...&lt;br&gt;+&amp;nbsp;&lt;b&gt;children_down&lt;/b&gt;&lt;/p&gt;" style="align=left;overflow=fill;html=1;dropTarget=0;whiteSpace=wrap;" vertex="1" parent="1">
          <mxGeometry x="140" y="645" width="140" height="130" as="geometry" />
        </mxCell>
        <mxCell id="R3KGfR47Vl5QDTr6S6DE-22" value="" style="shape=component;jettyWidth=8;jettyHeight=4;" vertex="1" parent="R3KGfR47Vl5QDTr6S6DE-21">
          <mxGeometry x="1" width="20" height="20" relative="1" as="geometry">
            <mxPoint x="-24" y="4" as="offset" />
          </mxGeometry>
        </mxCell>
        <mxCell id="R3KGfR47Vl5QDTr6S6DE-23" value="&lt;p style=&quot;margin:0px;margin-top:6px;text-align:center;&quot;&gt;&lt;b&gt;Element&lt;/b&gt;&lt;/p&gt;&lt;hr&gt;&lt;p style=&quot;margin:0px;margin-left:8px;&quot;&gt;+ &lt;b&gt;children_up&lt;/b&gt;&lt;/p&gt;&lt;p style=&quot;margin:0px;margin-left:8px;&quot;&gt;+ order = 1&lt;/p&gt;&lt;p style=&quot;margin:0px;margin-left:8px;&quot;&gt;+ index = 2&lt;/p&gt;&lt;p style=&quot;margin:0px;margin-left:8px;&quot;&gt;+ DownBranch&lt;/p&gt;&lt;p style=&quot;margin:0px;margin-left:8px;&quot;&gt;+ other attributes...&lt;br&gt;+&amp;nbsp;&lt;b&gt;children_down&lt;/b&gt;&lt;/p&gt;" style="align=left;overflow=fill;html=1;dropTarget=0;whiteSpace=wrap;" vertex="1" parent="1">
          <mxGeometry x="320" y="645" width="140" height="130" as="geometry" />
        </mxCell>
        <mxCell id="R3KGfR47Vl5QDTr6S6DE-24" value="" style="shape=component;jettyWidth=8;jettyHeight=4;" vertex="1" parent="R3KGfR47Vl5QDTr6S6DE-23">
          <mxGeometry x="1" width="20" height="20" relative="1" as="geometry">
            <mxPoint x="-24" y="4" as="offset" />
          </mxGeometry>
        </mxCell>
        <mxCell id="R3KGfR47Vl5QDTr6S6DE-25" value="&lt;p style=&quot;margin:0px;margin-top:6px;text-align:center;&quot;&gt;&lt;b&gt;Element&lt;/b&gt;&lt;/p&gt;&lt;hr&gt;&lt;p style=&quot;margin:0px;margin-left:8px;&quot;&gt;+ &lt;b&gt;children_up&lt;/b&gt;&lt;/p&gt;&lt;p style=&quot;margin:0px;margin-left:8px;&quot;&gt;+ order = 1&lt;/p&gt;&lt;p style=&quot;margin:0px;margin-left:8px;&quot;&gt;+ index = 3&lt;/p&gt;&lt;p style=&quot;margin:0px;margin-left:8px;&quot;&gt;+DownBranch&lt;/p&gt;&lt;p style=&quot;margin:0px;margin-left:8px;&quot;&gt;+ other attributes...&lt;br&gt;+&amp;nbsp;&lt;b&gt;children_down&lt;/b&gt;&lt;/p&gt;" style="align=left;overflow=fill;html=1;dropTarget=0;whiteSpace=wrap;" vertex="1" parent="1">
          <mxGeometry x="500" y="645" width="140" height="130" as="geometry" />
        </mxCell>
        <mxCell id="R3KGfR47Vl5QDTr6S6DE-26" value="" style="shape=component;jettyWidth=8;jettyHeight=4;" vertex="1" parent="R3KGfR47Vl5QDTr6S6DE-25">
          <mxGeometry x="1" width="20" height="20" relative="1" as="geometry">
            <mxPoint x="-24" y="4" as="offset" />
          </mxGeometry>
        </mxCell>
        <mxCell id="R3KGfR47Vl5QDTr6S6DE-27" value="&lt;p style=&quot;margin:0px;margin-top:6px;text-align:center;&quot;&gt;&lt;b&gt;Element&lt;/b&gt;&lt;/p&gt;&lt;hr&gt;&lt;p style=&quot;margin:0px;margin-left:8px;&quot;&gt;+ &lt;b&gt;children_up&lt;/b&gt;&lt;/p&gt;&lt;p style=&quot;margin:0px;margin-left:8px;&quot;&gt;+ order = 1&lt;/p&gt;&lt;p style=&quot;margin:0px;margin-left:8px;&quot;&gt;+ index = 4&lt;/p&gt;&lt;p style=&quot;margin:0px;margin-left:8px;&quot;&gt;+ DownBranch&lt;/p&gt;&lt;p style=&quot;margin:0px;margin-left:8px;&quot;&gt;+ other attributes...&lt;br&gt;+&amp;nbsp;&lt;b&gt;children_down&lt;/b&gt;&lt;/p&gt;" style="align=left;overflow=fill;html=1;dropTarget=0;whiteSpace=wrap;" vertex="1" parent="1">
          <mxGeometry x="680" y="645" width="140" height="130" as="geometry" />
        </mxCell>
        <mxCell id="R3KGfR47Vl5QDTr6S6DE-28" value="" style="shape=component;jettyWidth=8;jettyHeight=4;" vertex="1" parent="R3KGfR47Vl5QDTr6S6DE-27">
          <mxGeometry x="1" width="20" height="20" relative="1" as="geometry">
            <mxPoint x="-24" y="4" as="offset" />
          </mxGeometry>
        </mxCell>
        <mxCell id="R3KGfR47Vl5QDTr6S6DE-32" style="edgeStyle=orthogonalEdgeStyle;rounded=0;orthogonalLoop=1;jettySize=auto;html=1;fillColor=#d80073;strokeColor=#A50040;exitX=0;exitY=0.909;exitDx=0;exitDy=0;exitPerimeter=0;" edge="1" parent="1" source="R3KGfR47Vl5QDTr6S6DE-4" target="R3KGfR47Vl5QDTr6S6DE-29">
          <mxGeometry relative="1" as="geometry" />
        </mxCell>
        <mxCell id="R3KGfR47Vl5QDTr6S6DE-29" value="array of Elements (down branch)" style="shape=umlFrame;whiteSpace=wrap;html=1;pointerEvents=0;fillColor=#d80073;strokeColor=#A50040;width=220;height=25;fontColor=#ffffff;" vertex="1" parent="1">
          <mxGeometry x="110" y="600" width="920" height="200" as="geometry" />
        </mxCell>
        <mxCell id="R3KGfR47Vl5QDTr6S6DE-30" value="&lt;p style=&quot;margin:0px;margin-top:6px;text-align:center;&quot;&gt;&lt;b&gt;Element&lt;/b&gt;&lt;/p&gt;&lt;hr&gt;&lt;p style=&quot;margin:0px;margin-left:8px;&quot;&gt;+ &lt;b&gt;children_up&lt;/b&gt;&lt;/p&gt;&lt;p style=&quot;margin:0px;margin-left:8px;&quot;&gt;+ order = 1&lt;/p&gt;&lt;p style=&quot;margin:0px;margin-left:8px;&quot;&gt;+ index = 5&lt;/p&gt;&lt;p style=&quot;margin:0px;margin-left:8px;&quot;&gt;+ DownBranch&lt;/p&gt;&lt;p style=&quot;margin:0px;margin-left:8px;&quot;&gt;+ other attributes...&lt;br&gt;+&amp;nbsp;&lt;b&gt;children_down&lt;/b&gt;&lt;/p&gt;" style="align=left;overflow=fill;html=1;dropTarget=0;whiteSpace=wrap;" vertex="1" parent="1">
          <mxGeometry x="860" y="645" width="140" height="130" as="geometry" />
        </mxCell>
        <mxCell id="R3KGfR47Vl5QDTr6S6DE-31" value="" style="shape=component;jettyWidth=8;jettyHeight=4;" vertex="1" parent="R3KGfR47Vl5QDTr6S6DE-30">
          <mxGeometry x="1" width="20" height="20" relative="1" as="geometry">
            <mxPoint x="-24" y="4" as="offset" />
          </mxGeometry>
        </mxCell>
        <mxCell id="R3KGfR47Vl5QDTr6S6DE-48" style="edgeStyle=orthogonalEdgeStyle;rounded=0;orthogonalLoop=1;jettySize=auto;html=1;fillColor=#d80073;strokeColor=#A50040;exitX=0;exitY=0.25;exitDx=0;exitDy=0;" edge="1" parent="1" source="R3KGfR47Vl5QDTr6S6DE-10" target="R3KGfR47Vl5QDTr6S6DE-41">
          <mxGeometry relative="1" as="geometry">
            <Array as="points">
              <mxPoint x="480" y="292" />
              <mxPoint x="480" y="200" />
              <mxPoint x="690" y="200" />
            </Array>
          </mxGeometry>
        </mxCell>
        <mxCell id="R3KGfR47Vl5QDTr6S6DE-41" value="array of Elements (up branch)" style="shape=umlFrame;whiteSpace=wrap;html=1;pointerEvents=0;fillColor=#d80073;strokeColor=#A50040;width=220;height=25;fontColor=#ffffff;" vertex="1" parent="1">
          <mxGeometry x="230" y="30" width="880" height="150" as="geometry" />
        </mxCell>
        <mxCell id="R3KGfR47Vl5QDTr6S6DE-44" value="&lt;p style=&quot;margin:0px;margin-top:6px;text-align:center;&quot;&gt;&lt;b&gt;Element&lt;/b&gt;&lt;/p&gt;&lt;hr&gt;&lt;p style=&quot;margin:0px;margin-left:8px;&quot;&gt;+ &lt;b&gt;children_up&lt;/b&gt;&lt;/p&gt;&lt;p style=&quot;margin:0px;margin-left:8px;&quot;&gt;+ order = 2&lt;/p&gt;&lt;p style=&quot;margin:0px;margin-left:8px;&quot;&gt;+ index = 2&lt;/p&gt;&lt;p style=&quot;margin:0px;margin-left:8px;&quot;&gt;+ UpBranch&lt;/p&gt;&lt;p style=&quot;margin:0px;margin-left:8px;&quot;&gt;+ other attributes...&lt;br&gt;+&amp;nbsp;&lt;b&gt;children_down&lt;/b&gt;&lt;/p&gt;" style="align=left;overflow=fill;html=1;dropTarget=0;whiteSpace=wrap;" vertex="1" parent="1">
          <mxGeometry x="460" y="40" width="140" height="130" as="geometry" />
        </mxCell>
        <mxCell id="R3KGfR47Vl5QDTr6S6DE-45" value="" style="shape=component;jettyWidth=8;jettyHeight=4;" vertex="1" parent="R3KGfR47Vl5QDTr6S6DE-44">
          <mxGeometry x="1" width="20" height="20" relative="1" as="geometry">
            <mxPoint x="-24" y="4" as="offset" />
          </mxGeometry>
        </mxCell>
        <mxCell id="R3KGfR47Vl5QDTr6S6DE-46" value="&lt;p style=&quot;margin:0px;margin-top:6px;text-align:center;&quot;&gt;&lt;b&gt;Element&lt;/b&gt;&lt;/p&gt;&lt;hr&gt;&lt;p style=&quot;margin:0px;margin-left:8px;&quot;&gt;...&lt;/p&gt;&lt;p style=&quot;margin:0px;margin-left:8px;&quot;&gt;+ order = 2&lt;/p&gt;&lt;p style=&quot;margin:0px;margin-left:8px;&quot;&gt;+ index = 1&lt;/p&gt;&lt;p style=&quot;margin:0px;margin-left:8px;&quot;&gt;...&lt;/p&gt;" style="align=left;overflow=fill;html=1;dropTarget=0;whiteSpace=wrap;" vertex="1" parent="1">
          <mxGeometry x="300" y="70" width="110" height="100" as="geometry" />
        </mxCell>
        <mxCell id="R3KGfR47Vl5QDTr6S6DE-47" value="" style="shape=component;jettyWidth=8;jettyHeight=4;" vertex="1" parent="R3KGfR47Vl5QDTr6S6DE-46">
          <mxGeometry x="1" width="20" height="20" relative="1" as="geometry">
            <mxPoint x="-24" y="4" as="offset" />
          </mxGeometry>
        </mxCell>
        <mxCell id="R3KGfR47Vl5QDTr6S6DE-49" value="&lt;p style=&quot;margin:0px;margin-top:6px;text-align:center;&quot;&gt;&lt;b&gt;Element&lt;/b&gt;&lt;/p&gt;&lt;hr&gt;&lt;p style=&quot;margin:0px;margin-left:8px;&quot;&gt;+ &lt;b&gt;children_up&lt;/b&gt;&lt;/p&gt;&lt;p style=&quot;margin:0px;margin-left:8px;&quot;&gt;+ order = 2&lt;/p&gt;&lt;p style=&quot;margin:0px;margin-left:8px;&quot;&gt;+ index = 3&lt;/p&gt;&lt;p style=&quot;margin:0px;margin-left:8px;&quot;&gt;+ UpBranch&lt;/p&gt;&lt;p style=&quot;margin:0px;margin-left:8px;&quot;&gt;+ other attributes...&lt;br&gt;+&amp;nbsp;&lt;b&gt;children_down&lt;/b&gt;&lt;/p&gt;" style="align=left;overflow=fill;html=1;dropTarget=0;whiteSpace=wrap;" vertex="1" parent="1">
          <mxGeometry x="620" y="40" width="140" height="130" as="geometry" />
        </mxCell>
        <mxCell id="R3KGfR47Vl5QDTr6S6DE-50" value="" style="shape=component;jettyWidth=8;jettyHeight=4;" vertex="1" parent="R3KGfR47Vl5QDTr6S6DE-49">
          <mxGeometry x="1" width="20" height="20" relative="1" as="geometry">
            <mxPoint x="-24" y="4" as="offset" />
          </mxGeometry>
        </mxCell>
        <mxCell id="R3KGfR47Vl5QDTr6S6DE-51" value="&lt;p style=&quot;margin:0px;margin-top:6px;text-align:center;&quot;&gt;&lt;b&gt;Element&lt;/b&gt;&lt;/p&gt;&lt;hr&gt;&lt;p style=&quot;margin:0px;margin-left:8px;&quot;&gt;+ &lt;b&gt;children_up&lt;/b&gt;&lt;/p&gt;&lt;p style=&quot;margin:0px;margin-left:8px;&quot;&gt;+ order = 2&lt;/p&gt;&lt;p style=&quot;margin:0px;margin-left:8px;&quot;&gt;+ index = 4&lt;/p&gt;&lt;p style=&quot;margin:0px;margin-left:8px;&quot;&gt;+ UpBranch&lt;/p&gt;&lt;p style=&quot;margin:0px;margin-left:8px;&quot;&gt;+ other attributes...&lt;br&gt;+&amp;nbsp;&lt;b&gt;children_down&lt;/b&gt;&lt;/p&gt;" style="align=left;overflow=fill;html=1;dropTarget=0;whiteSpace=wrap;" vertex="1" parent="1">
          <mxGeometry x="780" y="40" width="140" height="130" as="geometry" />
        </mxCell>
        <mxCell id="R3KGfR47Vl5QDTr6S6DE-52" value="" style="shape=component;jettyWidth=8;jettyHeight=4;" vertex="1" parent="R3KGfR47Vl5QDTr6S6DE-51">
          <mxGeometry x="1" width="20" height="20" relative="1" as="geometry">
            <mxPoint x="-24" y="4" as="offset" />
          </mxGeometry>
        </mxCell>
        <mxCell id="R3KGfR47Vl5QDTr6S6DE-54" value="&lt;p style=&quot;margin:0px;margin-top:6px;text-align:center;&quot;&gt;&lt;b&gt;Element&lt;/b&gt;&lt;/p&gt;&lt;hr&gt;&lt;p style=&quot;margin:0px;margin-left:8px;&quot;&gt;+ &lt;b&gt;children_up&lt;/b&gt;&lt;/p&gt;&lt;p style=&quot;margin:0px;margin-left:8px;&quot;&gt;+ order = 2&lt;/p&gt;&lt;p style=&quot;margin:0px;margin-left:8px;&quot;&gt;+ index = 5&lt;/p&gt;&lt;p style=&quot;margin:0px;margin-left:8px;&quot;&gt;+ UpBranch&lt;/p&gt;&lt;p style=&quot;margin:0px;margin-left:8px;&quot;&gt;+ other attributes...&lt;br&gt;+&amp;nbsp;&lt;b&gt;children_down&lt;/b&gt;&lt;/p&gt;" style="align=left;overflow=fill;html=1;dropTarget=0;whiteSpace=wrap;" vertex="1" parent="1">
          <mxGeometry x="940" y="40" width="140" height="130" as="geometry" />
        </mxCell>
        <mxCell id="R3KGfR47Vl5QDTr6S6DE-55" value="" style="shape=component;jettyWidth=8;jettyHeight=4;" vertex="1" parent="R3KGfR47Vl5QDTr6S6DE-54">
          <mxGeometry x="1" width="20" height="20" relative="1" as="geometry">
            <mxPoint x="-24" y="4" as="offset" />
          </mxGeometry>
        </mxCell>
        <mxCell id="R3KGfR47Vl5QDTr6S6DE-56" value="Each Element includes two &lt;br&gt;pointers - children_up and children_down. Each pointer points to array of 5 Elements of next order.&lt;br&gt;Recurrence continue up to 7th level." style="shape=note;whiteSpace=wrap;html=1;backgroundOutline=1;darkOpacity=0.05;align=left;fillColor=#fff2cc;strokeColor=#d6b656;" vertex="1" parent="1">
          <mxGeometry x="720" y="450" width="200" height="100" as="geometry" />
        </mxCell>
      </root>
    </mxGraphModel>
  </diagram>
</mxfile>
